<?xml version="1.0" encoding="UTF-8"?>
<svg id="Layer_2" data-name="Layer 2" xmlns="http://www.w3.org/2000/svg" viewBox="0 0 150 192.2">
  <defs>
    <style>
      .cls-1 {
        fill: #a6555d;
      }

      .cls-1, .cls-2 {
        stroke-width: 0px;
      }

      .cls-2 {
        fill: #f0d9d5;
      }
    </style>
  </defs>
  <g id="Layer_1-2" data-name="Layer 1">
    <g>
      <g>
        <path class="cls-1" d="m0,89.2c-.07,8.24,8.68,12.98,14.7,16.81,4.16,2.64,8.51,5.42,11.2,9.68,2.79,4.41,3.49,9.73,3.98,14.82.84,8.61.98,17.88,5.64,25.49,4.46,7.28,12.29,11.47,20.32,12.03.15,1.39.45,4.8.31,7.87-.19,3.98,0,16.3,0,16.3h32.41s-.57-9.48-.76-13.08c-.12-2.32.17-5.03.38-6.67,3.42.65,7.06.39,10.43-.93,12.97-5.08,17.59-19.38,18.73-32.08.62-6.92.2-13.99,1.7-20.81,1.55-7.09,5.83-12.13,11-16.98,9.42-8.83,17.74-18.38,19.75-31.65.62-4.09,0-9.04-4.18-11.09-4.23-2.07-8.2.9-10.63,4.18-6.12,8.29-8.21,22.77-18.35,27.42-3.95,1.81-8.34.53-6.91-4.67.99-3.62,3.04-7.22,4.54-10.67,2.89-6.62,6.11-13.06,8.25-19.98,2.91-9.43,8.29-27.97-2.54-34.54-4.3-2.61-9.48-.95-12.74,2.52-4.2,4.47-4.97,11.18-6.39,16.87-1.78,7.14-3.81,14.23-6.33,21.14-1.35,3.72-2.8,7.43-4.54,10.99-1.3,2.65-3.05,6.05-6.3,6.29-3.4-6.48,1.25-16.01,2.96-22.41,2.04-7.64,3.87-15.37,4.59-23.26.62-6.74.36-13.66-1.31-20.25-1.09-4.27-3.06-8.94-7.05-11.26-3.62-2.1-8.18-1.59-11.42.96-4.2,3.31-5.57,8.87-5.8,13.97-.26,5.79.3,11.63.17,17.43-.12,5.47-.43,10.94-.88,16.39-.44,5.28-.99,10.56-1.84,15.79-.44,2.72-.83,5.69-1.81,8.32-2.81-2.99-3.74-8.17-4.49-11.84-1.37-6.65-2.02-13.43-2.89-20.16-1.2-9.27-2.32-18.98-6.34-27.54-3.83-8.17-13.04-14.29-20.84-6.48-9.83,9.85-1.2,26.51,3.36,36.78,6.62,14.89,9.14,29.8,8.82,45.83-.38-.38-.76-.75-1.16-1.1-6.14-5.39-13.93-8.7-22.06-9.44C9.03,79.63.07,80.67,0,89.2Zm22.54-4.05c7.35,2.24,13.59,6.83,18.11,13,3.48,4.76,6.5,10.32,11.7,13.45,3.14,1.89,6.79,2.16,10.1,3.62,3.31,1.45,5.99,4.04,7.67,7.23,3.81,7.19,1.04,16.01-5.46,20.56-1.56,1.09-.12,3.65,1.51,2.59,7.03-4.57,10.81-13.28,8.28-21.47-1.19-3.86-3.61-7.29-6.8-9.76-3.83-2.97-8.42-3.14-12.6-5.26-5.7-2.88-8.9-8.94-12.73-14.19.13-.23.22-.49.26-.79,2-16.03-1.33-33.05-7.67-47.78-2.81-6.53-6.14-12.94-7.81-19.9-1.53-6.37-1.59-16.24,6.59-18.01,8.52-1.84,12.05,10.59,13.62,16.76,2.72,10.66,3.3,21.76,5.15,32.58,1.08,6.36,2.35,16.99,9.12,20.1.31.14.6.17.87.12.66.11,1.33-.14,1.69-.95,3.11-7.01,3.44-15.69,4.14-23.21.89-9.53,1.42-19.14,1.16-28.71-.17-6.13-1.41-13.93,3.06-18.93,4.96-5.55,10.92-1.16,13.01,4.37,4.64,12.24,2.14,26.59-.83,38.89-1.54,6.39-3.68,12.69-4.93,19.14-.83,4.28-.93,8.67,1.74,12.31.18.75.77,1.38,1.76,1.39,5.28.03,8.22-4.5,10.23-8.82,2.97-6.39,5.38-13.05,7.44-19.78,2.1-6.87,3.52-13.9,5.44-20.82.95-3.41,2.41-7.03,5.62-8.9,4.11-2.38,8.05.38,9.59,4.38,2.46,6.42.22,14.84-1.38,21.24-1.67,6.66-4.29,12.84-7.11,19.08-1.49,3.3-2.92,6.64-4.36,9.97-1.11,2.55-2.62,5.26-3.06,8.04-.6,3.74,1.26,7.19,5.02,8.15,8.67,2.22,15.39-6.97,18.77-13.53,2.29-4.44,4.09-9.13,6.64-13.43,1.32-2.23,2.98-5.42,5.76-5.96,4.51-.87,4.89,4.82,4.4,7.81-1.07,6.52-3.97,12.72-7.81,18.06-3.46,4.81-8,8.55-12.23,12.63-3.8,3.67-7.3,7.68-9.22,12.68-1.97,5.12-2.4,10.69-2.65,16.12-.57,12.27-.88,26.2-10.68,35.1-4.21,3.82-9.98,6.22-15.68,4.84-5.52-1.34-9.92-5.42-10.7-11.16-.08-.6-.5-1-.95-1.25-.74-.4-1.61-.56-2.42.24-6.42,6.36-15.26,9.51-24.06,6.29-8.77-3.22-13.37-11.02-14.96-19.86-1.32-7.33-.96-14.93-2.83-22.17-1.68-6.47-5.44-11.28-10.79-15.17-5.47-3.98-14.85-7.45-17.26-14.31-3.73-10.62,13.02-8.28,18.5-6.61Z"/>
        <path class="cls-2" d="m64.67,143.01c6.5-4.55,9.26-13.37,5.46-20.56-1.69-3.19-4.37-5.78-7.67-7.23-3.3-1.45-6.95-1.72-10.1-3.62-5.2-3.13-8.22-8.69-11.7-13.45-4.52-6.18-10.76-10.77-18.11-13-5.48-1.67-22.23-4.02-18.5,6.61,2.41,6.86,11.79,10.33,17.26,14.31,5.35,3.89,9.11,8.7,10.79,15.17,1.87,7.23,1.51,14.84,2.83,22.17,1.6,8.84,6.19,16.64,14.96,19.86,8.79,3.23,17.63.07,24.06-6.29.81-.8,1.7-.61,2.44-.21.45.25.85.61.94,1.21.78,5.74,5.18,9.82,10.7,11.16,5.7,1.38,11.47-1.01,15.68-4.84,9.81-8.9,10.12-22.83,10.68-35.1.25-5.43.68-11,2.65-16.12,1.92-4.99,5.42-9.01,9.22-12.68,4.23-4.08,8.77-7.82,12.23-12.63,3.84-5.34,6.74-11.54,7.81-18.06.49-2.98.1-8.68-4.4-7.81-2.79.54-4.44,3.73-5.76,5.96-2.55,4.3-4.35,9-6.64,13.43-3.38,6.56-10.09,15.75-18.77,13.53-3.76-.96-5.61-4.41-5.02-8.15.44-2.78,1.95-5.49,3.06-8.04,1.44-3.33,2.87-6.66,4.36-9.97,2.82-6.24,5.44-12.42,7.11-19.08,1.61-6.41,3.84-14.82,1.38-21.24-1.53-4-5.48-6.77-9.59-4.38-3.22,1.87-4.68,5.49-5.62,8.9-1.92,6.91-3.34,13.94-5.44,20.82-2.06,6.74-4.46,13.39-7.44,19.78-2.01,4.32-4.95,8.85-10.23,8.82-.99,0-1.58-.64-1.76-1.39-2.67-3.64-2.57-8.02-1.74-12.31,1.25-6.45,3.39-12.75,4.93-19.14,2.97-12.3,5.47-26.66.83-38.89-2.1-5.53-8.05-9.92-13.01-4.37-4.47,5-3.22,12.8-3.06,18.93.26,9.57-.27,19.19-1.16,28.71-.71,7.52-1.03,16.2-4.14,23.21-.36.82-1.04,1.07-1.69.95-.27.05-.56.02-.87-.12-6.77-3.11-8.04-13.74-9.12-20.1-1.85-10.82-2.43-21.92-5.15-32.58-1.57-6.17-5.1-18.6-13.62-16.76-8.18,1.77-8.11,11.64-6.59,18.01,1.67,6.95,5,13.37,7.81,19.9,6.34,14.73,9.66,31.75,7.67,47.78-.04.3-.13.56-.26.79,3.83,5.25,7.03,11.31,12.73,14.19,4.18,2.11,8.77,2.29,12.6,5.26,3.19,2.47,5.6,5.9,6.8,9.76,2.53,8.19-1.25,16.91-8.28,21.47-1.63,1.06-3.07-1.49-1.51-2.59Z"/>
      </g>
      <path class="cls-2" d="m59.78,168.15l.2,24.05h25.08l-.69-20.44s-5.09-2.67-7.65-6.07c-1.55-2.06-2.37-4-2.37-4,0,0-3.11,2.47-6.67,4.05-3.56,1.58-7.9,2.42-7.9,2.42Z"/>
    </g>
  </g>
</svg>