<?xml version="1.0" encoding="UTF-8"?>
<svg id="Layer_2" data-name="Layer 2" xmlns="http://www.w3.org/2000/svg" viewBox="0 0 140.52 150">
  <defs>
    <style>
      .cls-1 {
        fill: #a6555d;
      }

      .cls-1, .cls-2 {
        stroke-width: 0px;
      }

      .cls-2 {
        fill: #f0d9d5;
      }
    </style>
  </defs>
  <g id="Layer_1-2" data-name="Layer 1">
    <g>
      <g>
        <path class="cls-1" d="m89.52,120.55c2.43.33,4.82.55,7.08.7,10.74.7,21.08-.84,29.97-7.29,7.22-5.24,12.14-13.1,13.58-21.9,1.54-9.4-1.92-18.21-8.19-25.1,2.81-6.73,3.12-14.21,2.56-21.42-.59-7.48-1.78-15.28-4.46-22.32C125.36,10.87,114.46,1.32,101.04.11c-12.03-1.08-24.29,6.02-29.05,17.19-.43,1-.79,2.05-1.09,3.14-8.56-7.45-23.22-7.34-29.57,2.76-4.16-2.36-9.56-2.26-13.69.29-4.27,2.63-6.25,7.31-6.65,12.11-4.96-2.59-11.29-1.56-15.5,2.42C-.37,43.55-1.13,52.37,1.29,59.71c2.57,7.8,7.95,15.13,14.74,19.78.15.1.31.2.46.3-.2.27-.32.6-.31.99.27,14.45,9.22,31.65,22.04,38.86,3.88,2.18,9.08,2.98,14.23,2.44.32,1.88.52,5.51.79,8.63.37,4.3-.34,19.3-.34,19.3h36.06l.55-29.45ZM103.81,4.92c25.17,5.31,29.39,37.54,25.27,59.18-5.56-5.02-12-8.24-18.88-10.13,4.8-3.69,8.51-10.03,8.45-15.85-.02-1.97-2.61-2.13-3.26-.44-1.12,2.9-1.97,5.86-3.62,8.53-.09.15-.19.29-.28.43,1.82-5.65,1.7-11.82-3-15.82-1.14-.98-3.46-.08-2.81,1.63,1.27,3.35,2.66,6.17,2.45,9.85-.21,3.79-1.8,7.2-3.71,10.4-6.9-1.17-14.1-1.2-21.19-.55-.06-.11-.13-.22-.22-.33-7.25-8.99-12.04-22.88-6.47-33.97,4.97-9.89,16.52-15.21,27.25-12.94Zm-49.32,14.29c5.92-1.02,11.08,1.7,15.59,5.18-1.34,9.81,1.64,21.37,8.14,28.34-2.81.38-5.58.86-8.3,1.4-4.19.84-8.59,1.83-12.73,3.37-.05-.06-.09-.12-.15-.18-6.89-7.01-16.65-17.55-13.7-28.5,1.36-5.06,6.05-8.73,11.13-9.6Zm-14.78,7.3c-2.09,5.93-.42,12.37,2.25,17.95,2.48,5.18,6.07,11.56,11.19,14.79-3.58,1.79-6.82,4.15-9.34,7.39-3.13-2.37-6.36-4.47-9.07-7.42-3.58-3.9-6.42-8.57-8.15-13.58-1.57-4.55-2.36-9.86-.35-14.41,2.53-5.72,8.35-6.81,13.48-4.72ZM7.74,63.68c-2.96-5.33-4.78-11.88-2.54-17.82,2.53-6.68,9.75-9.78,15.84-5.97,1.16,11.58,9.73,25.2,20.57,30.24-1.37,2.68-2.18,5.63-2.28,8.56-6.9,1.42-12.87,1.83-19.28-1.88-5.28-3.06-9.38-7.84-12.31-13.13Zm29.3,49.99c-9.99-8.08-14.6-19.79-17.1-31.95,6.12,2.92,13.77,4.08,19.75,1.05.52,2.4,1.6,4.68,3.36,6.68,7.6,8.6,20.64,7.08,30.7,5.04,4.44-.9,8.79-2.12,13.06-3.56,2.22,3.24,6.47,5.12,9.82,6.86,4.13,2.14,8.95,4.37,13.69,4.13,1.83-.09,2.22-2.63.43-3.2-7.07-2.25-14.56-4.25-20.48-9.01.79-.29,1.57-.58,2.35-.88,7.9,3.79,20.31,5.46,28.72,3.2,1.8-.48,1.31-2.99-.42-3.12-4.42-.33-8.85.2-13.3-.24-3.39-.33-6.63-1.14-9.9-1.88,5-2.09,9.93-4.37,14.83-6.67,2.13-1,.27-4.02-1.82-3.12-9.08,3.9-18.15,7.89-27.6,10.83-8.83,2.74-19.42,5.61-28.66,3.49-9.59-2.2-13.88-11.37-8.88-20,4.58-7.9,13.98-10.72,22.35-12.55,17.68-3.88,37.63-5.51,53.52,4.8,7.17,4.65,13.46,12.07,14.7,20.76,1.18,8.28-2.57,17.05-8.41,22.84-7.43,7.37-17.48,10-27.68,9.71-10.01-.29-21.59-1.92-29.6-8.47-1.34-1.1-3.01-.31-3.43.92-4.01,3.73-7.5,6.81-13.09,8.09-6.18,1.42-11.93.28-16.89-3.73Z"/>
        <g>
          <path class="cls-2" d="m37.03,113.67c4.96,4.01,10.71,5.15,16.89,3.73,5.59-1.29,9.08-4.36,13.09-8.09.42-1.23,2.09-2.02,3.43-.92,8.01,6.55,19.59,8.18,29.6,8.47,10.2.29,20.26-2.34,27.68-9.71,5.84-5.79,9.59-14.56,8.41-22.84-1.24-8.68-7.53-16.11-14.7-20.76-15.9-10.31-35.84-8.69-53.52-4.8-8.37,1.84-17.77,4.65-22.35,12.55-5,8.63-.71,17.8,8.88,20,9.24,2.12,19.82-.75,28.66-3.49,9.45-2.93,18.53-6.93,27.6-10.83,2.09-.9,3.95,2.12,1.82,3.12-4.89,2.3-9.82,4.58-14.83,6.67,3.27.75,6.5,1.55,9.9,1.88,4.45.44,8.88-.09,13.3.24,1.73.13,2.22,2.63.42,3.12-8.41,2.26-20.81.6-28.72-3.2-.78.3-1.57.59-2.35.88,5.92,4.76,13.4,6.75,20.48,9.01,1.78.57,1.4,3.11-.43,3.2-4.74.24-9.56-1.99-13.69-4.13-3.35-1.74-7.6-3.62-9.82-6.86-4.28,1.44-8.62,2.66-13.06,3.56-10.05,2.04-23.1,3.55-30.7-5.04-1.76-1.99-2.84-4.28-3.36-6.68-5.98,3.02-13.63,1.86-19.75-1.05,2.5,12.16,7.11,23.87,17.1,31.95Z"/>
          <path class="cls-2" d="m118.65,38.12c.06,5.82-3.66,12.16-8.45,15.85,6.88,1.89,13.32,5.11,18.88,10.13,4.12-21.64-.09-53.86-25.27-59.18-10.74-2.27-22.29,3.05-27.25,12.94-5.57,11.09-.78,24.98,6.47,33.97.09.11.16.22.22.33,7.09-.65,14.29-.62,21.19.55,1.91-3.21,3.5-6.61,3.71-10.4.21-3.69-1.18-6.51-2.45-9.85-.65-1.71,1.66-2.61,2.81-1.63,4.69,4,4.82,10.17,3,15.82.09-.14.19-.28.28-.43,1.65-2.67,2.5-5.62,3.62-8.53.65-1.69,3.24-1.53,3.26.44Z"/>
          <path class="cls-2" d="m54.49,19.22c-5.08.88-9.77,4.54-11.13,9.6-2.95,10.95,6.81,21.49,13.7,28.5.06.06.1.12.15.18,4.14-1.54,8.54-2.54,12.73-3.37,2.72-.54,5.49-1.02,8.3-1.4-6.5-6.97-9.48-18.53-8.14-28.34-4.51-3.48-9.68-6.2-15.59-5.18Z"/>
          <path class="cls-2" d="m5.2,45.86c-2.25,5.94-.42,12.49,2.54,17.82,2.93,5.29,7.04,10.08,12.31,13.13,6.41,3.71,12.38,3.3,19.28,1.88.1-2.94.91-5.89,2.28-8.56-10.85-5.04-19.42-18.66-20.57-30.24-6.08-3.81-13.3-.72-15.84,5.97Z"/>
          <path class="cls-2" d="m26.24,31.24c-2.01,4.55-1.22,9.86.35,14.41,1.73,5.01,4.57,9.68,8.15,13.58,2.71,2.95,5.94,5.05,9.07,7.42,2.52-3.25,5.76-5.6,9.34-7.39-5.12-3.23-8.71-9.62-11.19-14.79-2.67-5.58-4.34-12.02-2.25-17.95-5.13-2.09-10.95-.99-13.48,4.72Z"/>
        </g>
      </g>
      <path class="cls-2" d="m85.68,120.28s-4.9-1.2-9.15-3.23c-2.96-1.42-6.88-4.01-6.88-4.01,0,0-5.38,5.14-8.97,6.58s-4.78,1.79-4.78,1.79c0,0,.42,7.77.54,13.39.12,5.62-.3,15.19-.3,15.19h29.06l.48-29.72Z"/>
    </g>
  </g>
</svg>