<?xml version="1.0" encoding="UTF-8"?>
<svg id="Layer_2" data-name="Layer 2" xmlns="http://www.w3.org/2000/svg" viewBox="0 0 103.43 192">
  <defs>
    <style>
      .cls-1 {
        fill: #a6555d;
      }

      .cls-1, .cls-2 {
        stroke-width: 0px;
      }

      .cls-2 {
        fill: #f0d9d5;
      }
    </style>
  </defs>
  <g id="Layer_1-2" data-name="Layer 1">
    <g>
      <g>
        <path class="cls-1" d="m6.99,49.62c3.08,12.09,5.75,24.21,7.25,36.6-4.86,2.91-7.27,8.65-8.62,13.96-2.18,8.6-2.15,17.62-1.19,26.39,1.57,14.24,4.17,32.9,16.26,42.39,3.41,2.68,7.63,4.34,11.93,4.83-.63,3.22.93,18.2.93,18.2h32.7l.17-5.6c.06-.15.09-.31.09-.5,0-.28,0-.55,0-.83l.47-7c.14-.84.34-1.69.58-2.52,5.35.02,10.54-1.81,14.84-5.13,15.03-11.58,12.87-31.92,12.02-48.77,0-.08-.02-.16-.03-.24.69-.93,1.3-1.87,1.82-2.78,4.23-7.32,8.61-16.36,6.8-25.07-.59-2.86-2.14-5.9-5.02-7.02-1.51-.59-2.98-.51-4.37-.05.39-1.38.65-2.81.74-4.27.58-10.37-8.48-17.83-18.33-13.5-3.58,1.57-6.63,4.02-9.31,6.93,2.02-8.23,2.74-16.82,2.74-25.23,0-12.82-1.39-27.06-6.21-39.06-2.86-7.11-12.07-15.87-19-7.64-3.07,3.64-3.56,9.05-3.9,13.6-.46,6.12,0,12.26.59,18.35.6,6.33,1.37,12.65,1.43,19.02.03,3.39-.14,6.78-.68,10.13-.21,1.32-.5,2.63-.84,3.92-.64,2.45-.75,2.16-1.49-.09-4.15-12.6-4.58-26.06-7.72-38.89-2.34-9.56-6.16-22.31-15.06-27.85C13.25-.14,8.43-.86,5.02,1.37,1.33,3.77.49,9.08.12,13.1c-.56,6.25.88,12.28,2.31,18.32,1.45,6.09,3.01,12.14,4.56,18.2Zm71.76,53.82c-2.64,3.25-5.5,7.19-9.3,9.18-4.25,2.22-9.09,1.68-10.87-2.68,5.65-2.77,6.19-8.84,1.8-13.51-.48-.51-1-.99-1.53-1.46,3.5-6.7,7.17-13.11,12.69-18.42,3.42-3.29,8.05-6.54,13.02-5.01,3.79,1.17,5.84,5.34,6.02,9.1.42,8.49-6.85,16.65-11.85,22.8Zm14.82,12.18c-2.16,3.83-7.35,12.02-12.74,7.55-3.7-3.07-2.08-10.76-1.28-14.69,0-.01,0-.03,0-.04,3.04-3.46,5.79-7.26,8.37-10.96,1.42-2.03,2.79-4.17,3.91-6.43.9-.57,1.9-1.14,2.82-1.25,2.77-.34,3.96,1.59,4.58,3.72.72,2.47.54,5.35.09,7.85-.9,5.08-3.23,9.79-5.74,14.25Zm-77.51-26.08c5.44-3.35,13.92-1.2,19.71.04,5.89,1.26,12.14,2.93,17.39,5.95,2.69,1.55,6.92,4.37,6.37,7.83-.66,4.11-6.25,4.42-9.62,4.7-6.37.54-12.82-.04-19.05-1.45-.78-.18-1.37.19-1.68.72-.65.72-.73,1.93.35,2.48,7.75,4.02,15.59,6.95,19.29,15.64,3.46,8.13.26,17.35-8.47,20.05-1.86.57-1.04,3.08.78,2.83,9.54-1.34,14.07-11.98,12.14-20.59-1.41-6.29-5.83-11.9-11.34-15.82,4.59.45,9.26.3,13.46-.85.8,3.15,3.67,5.52,6.9,6.23,4.62,1.02,9-1.09,12.46-4.01-.69,5.17.38,11.01,4.53,13.62,4.48,2.8,8.78.97,12.15-2.17-.02,13.76,1.78,29.51-8.38,40.14-4.42,4.62-10.43,7.41-16.89,6.92-3.07-.24-6.12-1.19-8.74-2.81-2.6-1.6-4.06-3.81-6.07-6-.35-.38-.81-.51-1.26-.46-.62-.06-1.27.18-1.7.85-7.24,11.1-22.77,7.4-29.72-1.84-7.42-9.87-9.41-24.45-10.58-36.4-.64-6.53-.77-13.2.32-19.69.92-5.48,2.52-12.75,7.64-15.9Zm-4.67-39.06c-1.54-6.24-3.16-12.47-4.66-18.72-1.47-6.13-3.12-12.29-2.53-18.65.32-3.47,1.01-8.64,5.32-9,2.8-.24,5.14,1.21,7.14,2.99,3.83,3.4,5.98,8.6,7.83,13.27,4.27,10.77,5.57,22.32,7.6,33.65.58,3.21,3.14,25.07,10.04,20.54,3.22-2.12,3.41-9.08,3.77-12.5.56-5.36.34-10.77-.1-16.14-.9-11.02-3.02-22.4-1.03-33.42.51-2.81,1.32-6.29,4.08-7.75,3.58-1.89,6.79.98,8.71,3.72,3.07,4.37,4.24,9.89,5.39,15.03,4.25,18.91,4.46,39.86-1.21,58.56-2.29,3.46-4.28,7.13-6.11,10.58-4.88-3.03-10.84-4.7-16.16-6.02-6.42-1.59-14.87-3.73-21.64-1.88-1.22-11.59-3.68-22.94-6.47-34.25Z"/>
        <g>
          <g>
            <path class="cls-2" d="m80.83,123.16c-3.7-3.07-2.08-10.76-1.28-14.69,0-.01,0-.03,0-.04,3.04-3.46,5.79-7.26,8.37-10.96,1.42-2.03,2.79-4.17,3.91-6.43.9-.57,1.9-1.14,2.82-1.25,2.77-.34,3.96,1.59,4.58,3.72.72,2.47.54,5.35.09,7.85-.9,5.08-3.23,9.79-5.74,14.25-2.16,3.83-7.35,12.02-12.74,7.55Z"/>
            <path class="cls-2" d="m16.07,89.53c5.44-3.35,13.92-1.2,19.71.04,5.89,1.26,12.14,2.93,17.39,5.95,2.69,1.55,6.92,4.37,6.37,7.83-.66,4.11-6.25,4.42-9.62,4.7-6.37.54-12.82-.04-19.05-1.45-.78-.18-1.37.19-1.68.72-.65.72-.73,1.93.35,2.48,7.75,4.02,15.59,6.95,19.29,15.64,3.46,8.13.26,17.35-8.47,20.05-1.86.57-1.04,3.08.78,2.83,9.54-1.34,14.07-11.98,12.14-20.59-1.41-6.29-5.83-11.9-11.34-15.82,4.59.45,9.26.3,13.46-.85.8,3.15,3.67,5.52,6.9,6.23,4.62,1.02,9-1.09,12.46-4.01-.69,5.17.38,11.01,4.53,13.62,4.48,2.8,8.78.97,12.15-2.17-.02,13.76,1.78,29.51-8.38,40.14-4.42,4.62-10.43,7.41-16.89,6.92-3.07-.24-6.12-1.19-8.74-2.81-2.6-1.6-4.06-3.81-6.07-6-.35-.38-.81-.51-1.26-.46-.62-.06-1.27.18-1.7.85-7.24,11.1-22.77,7.4-29.72-1.84-7.42-9.87-9.41-24.45-10.58-36.4-.64-6.53-.77-13.2.32-19.69.92-5.48,2.52-12.75,7.64-15.9Z"/>
            <path class="cls-2" d="m69.46,112.61c-4.25,2.22-9.09,1.68-10.87-2.68,5.65-2.77,6.19-8.84,1.8-13.51-.48-.51-1-.99-1.53-1.46,3.5-6.7,7.17-13.11,12.69-18.42,3.42-3.29,8.05-6.54,13.02-5.01,3.79,1.17,5.84,5.34,6.02,9.1.42,8.49-6.85,16.65-11.85,22.8-2.64,3.25-5.5,7.19-9.3,9.18Z"/>
            <path class="cls-2" d="m9.54,4.1c2.8-.24,5.14,1.21,7.14,2.99,3.83,3.4,5.98,8.6,7.83,13.27,4.27,10.77,5.57,22.32,7.6,33.65.58,3.21,3.14,25.07,10.04,20.54,3.22-2.12,3.41-9.08,3.77-12.5.56-5.36.34-10.77-.1-16.14-.9-11.02-3.02-22.4-1.03-33.42.51-2.81,1.32-6.29,4.08-7.75,3.58-1.89,6.79.98,8.71,3.72,3.07,4.37,4.24,9.89,5.39,15.03,4.25,18.91,4.46,39.86-1.21,58.56-2.29,3.46-4.28,7.13-6.11,10.58-4.88-3.03-10.84-4.7-16.16-6.02-6.42-1.59-14.87-3.73-21.64-1.88-1.22-11.59-3.68-22.94-6.47-34.25-1.54-6.24-3.16-12.47-4.66-18.72-1.47-6.13-3.12-12.29-2.53-18.65.32-3.47,1.01-8.64,5.32-9Z"/>
          </g>
          <g>
            <path class="cls-2" d="m80.83,123.16c-3.7-3.07-2.08-10.76-1.28-14.69,0-.01,0-.03,0-.04,3.04-3.46,5.79-7.26,8.37-10.96,1.42-2.03,2.79-4.17,3.91-6.43.9-.57,1.9-1.14,2.82-1.25,2.77-.34,3.96,1.59,4.58,3.72.72,2.47.54,5.35.09,7.85-.9,5.08-3.23,9.79-5.74,14.25-2.16,3.83-7.35,12.02-12.74,7.55Z"/>
            <path class="cls-2" d="m16.07,89.53c5.44-3.35,13.92-1.2,19.71.04,5.89,1.26,12.14,2.93,17.39,5.95,2.69,1.55,6.92,4.37,6.37,7.83-.66,4.11-6.25,4.42-9.62,4.7-6.37.54-12.82-.04-19.05-1.45-.78-.18-1.37.19-1.68.72-.65.72-.73,1.93.35,2.48,7.75,4.02,15.59,6.95,19.29,15.64,3.46,8.13.26,17.35-8.47,20.05-1.86.57-1.04,3.08.78,2.83,9.54-1.34,14.07-11.98,12.14-20.59-1.41-6.29-5.83-11.9-11.34-15.82,4.59.45,9.26.3,13.46-.85.8,3.15,3.67,5.52,6.9,6.23,4.62,1.02,9-1.09,12.46-4.01-.69,5.17.38,11.01,4.53,13.62,4.48,2.8,8.78.97,12.15-2.17-.02,13.76,1.78,29.51-8.38,40.14-4.42,4.62-10.43,7.41-16.89,6.92-3.07-.24-6.12-1.19-8.74-2.81-2.6-1.6-4.06-3.81-6.07-6-.35-.38-.81-.51-1.26-.46-.62-.06-1.27.18-1.7.85-7.24,11.1-22.77,7.4-29.72-1.84-7.42-9.87-9.41-24.45-10.58-36.4-.64-6.53-.77-13.2.32-19.69.92-5.48,2.52-12.75,7.64-15.9Z"/>
            <path class="cls-2" d="m69.46,112.61c-4.25,2.22-9.09,1.68-10.87-2.68,5.65-2.77,6.19-8.84,1.8-13.51-.48-.51-1-.99-1.53-1.46,3.5-6.7,7.17-13.11,12.69-18.42,3.42-3.29,8.05-6.54,13.02-5.01,3.79,1.17,5.84,5.34,6.02,9.1.42,8.49-6.85,16.65-11.85,22.8-2.64,3.25-5.5,7.19-9.3,9.18Z"/>
            <path class="cls-2" d="m9.54,4.1c2.8-.24,5.14,1.21,7.14,2.99,3.83,3.4,5.98,8.6,7.83,13.27,4.27,10.77,5.57,22.32,7.6,33.65.58,3.21,3.14,25.07,10.04,20.54,3.22-2.12,3.41-9.08,3.77-12.5.56-5.36.34-10.77-.1-16.14-.9-11.02-3.02-22.4-1.03-33.42.51-2.81,1.32-6.29,4.08-7.75,3.58-1.89,6.79.98,8.71,3.72,3.07,4.37,4.24,9.89,5.39,15.03,4.25,18.91,4.46,39.86-1.21,58.56-2.29,3.46-4.28,7.13-6.11,10.58-4.88-3.03-10.84-4.7-16.16-6.02-6.42-1.59-14.87-3.73-21.64-1.88-1.22-11.59-3.68-22.94-6.47-34.25-1.54-6.24-3.16-12.47-4.66-18.72-1.47-6.13-3.12-12.29-2.53-18.65.32-3.47,1.01-8.64,5.32-9Z"/>
          </g>
        </g>
      </g>
      <path class="cls-2" d="m36.09,174.01l.98,17.99h25.26l1.04-16.7s-5.28-.67-8.96-3.42c-2.47-1.84-4.5-3.83-4.5-3.83,0,0-2.56,2.1-5.59,3.52-4.3,2.02-8.23,2.43-8.23,2.43Z"/>
    </g>
  </g>
</svg>